<svg width="150" height="150" viewBox="0 0 150 150" fill="none" xmlns="http://www.w3.org/2000/svg">
    <style>
        --background: #E9E9E9;
        --symbol: #333333;
        @media (prefers-color-scheme: dark) {
            --background: #161616;
            --symbol: #ffffff;
        }
    </style>
    <rect width="150" height="150" fill="var(--background)"/>
    <path d="M75 83C74.3333 83 73.7778 82.7847 73.3333 82.3542C72.8889 81.9236 72.6667 81.4028 72.6667 80.7917C72.6667 80.4445 72.7361 80.1319 72.875 79.8542C73.0139 79.5764 73.2569 79.2708 73.6042 78.9375C73.9653 78.6042 74.25 78.2917 74.4583 78C74.6806 77.6945 74.7917 77.4306 74.7917 77.2083V76.4583C74.4861 76.3889 74.2153 76.25 73.9792 76.0417C73.7569 75.8194 73.6111 75.5555 73.5417 75.25H72.7917C72.5556 75.25 72.2778 75.3611 71.9583 75.5834C71.6389 75.8055 71.3333 76.0764 71.0417 76.3958C70.75 76.7153 70.4583 76.9514 70.1667 77.1042C69.8889 77.257 69.5694 77.3334 69.2083 77.3334C68.5833 77.3334 68.0556 77.1111 67.625 76.6666C67.2083 76.2222 67 75.6666 67 75C67 74.3333 67.2083 73.7778 67.625 73.3333C68.0556 72.8889 68.5833 72.6667 69.2083 72.6667C69.7917 72.6667 70.2917 72.875 70.7083 73.2917C71.125 73.7083 71.5 74.0625 71.8333 74.3542C72.1667 74.6458 72.4861 74.7917 72.7917 74.7917H73.5417C73.6111 74.4722 73.7569 74.2083 73.9792 74C74.2153 73.7778 74.4861 73.6389 74.7917 73.5833V72.8333C74.7917 72.4722 74.5139 72.0139 73.9583 71.4583L73.5208 71.0208C72.9514 70.4514 72.6667 69.8472 72.6667 69.2083C72.6667 68.5833 72.8889 68.0625 73.3333 67.6458C73.7917 67.2153 74.3472 67 75 67C75.6666 67 76.2222 67.2153 76.6666 67.6458C77.1111 68.0764 77.3334 68.5972 77.3334 69.2083C77.3334 69.9167 76.9861 70.5833 76.2917 71.2083C75.5972 71.8472 75.25 72.3889 75.25 72.8333V73.5833C75.5694 73.6389 75.8334 73.7778 76.0417 74C76.2639 74.2083 76.4028 74.4722 76.4583 74.7917H77.2083C77.6806 74.7917 78.2222 74.4375 78.8334 73.7292C79.4583 73.0208 80.1111 72.6667 80.7917 72.6667C81.4166 72.6667 81.9375 72.8958 82.3542 73.3542C82.7847 73.7986 83 74.3472 83 75C83 75.6666 82.7847 76.2222 82.3542 76.6666C81.9236 77.1111 81.4028 77.3334 80.7917 77.3334C80.2083 77.3334 79.7153 77.1319 79.3125 76.7292C78.9098 76.3264 78.5347 75.9792 78.1875 75.6875C77.8402 75.3958 77.5139 75.25 77.2083 75.25H76.4583C76.3472 75.9166 75.9445 76.3194 75.25 76.4583V77.2083C75.25 77.625 75.5972 78.1598 76.2917 78.8125C76.9861 79.4653 77.3334 80.125 77.3334 80.7917C77.3334 81.4166 77.1042 81.9375 76.6458 82.3542C76.2014 82.7847 75.6528 83 75 83Z" fill="var(--symbol)"/>
    <path d="M75 120C71.25 120 68.125 118.789 65.625 116.367C63.125 113.945 61.875 111.016 61.875 107.578C61.875 105.625 62.2656 103.867 63.0469 102.305C63.8281 100.742 65.1953 99.0232 67.1484 97.1485C69.1797 95.2734 70.7812 93.5157 71.9531 91.875C73.2031 90.1564 73.8281 88.6719 73.8281 87.4218V83.203C72.1094 82.8124 70.5859 82.0313 69.2578 80.8595C68.0078 79.6094 67.1875 78.1248 66.7969 76.4062H62.5781C61.25 76.4062 59.6875 77.0313 57.8906 78.2814C56.0937 79.531 54.375 81.0547 52.7344 82.8516C51.0938 84.6484 49.4531 85.9764 47.8125 86.8359C46.25 87.6954 44.4531 88.1252 42.4219 88.1252C38.9063 88.1252 35.9375 86.875 33.5156 84.3748C31.1719 81.8751 30 78.7498 30 75C30 71.25 31.1719 68.125 33.5156 65.625C35.9375 63.125 38.9063 61.875 42.4219 61.875C45.7031 61.875 48.5156 63.0469 50.8594 65.3906C53.2031 67.7344 55.3125 69.7265 57.1875 71.3672C59.0625 73.0078 60.8594 73.8281 62.5781 73.8281H66.7969C67.1875 72.0313 68.0078 70.5468 69.2578 69.375C70.5859 68.125 72.1094 67.3437 73.8281 67.0312V62.8125C73.8281 60.7813 72.2656 58.2031 69.1406 55.0781L66.6797 52.6172C63.4766 49.4141 61.875 46.0156 61.875 42.4219C61.875 38.9063 63.125 35.9765 65.625 33.6328C68.2031 31.2109 71.3281 30 75 30C78.7498 30 81.8751 31.2109 84.3748 33.6328C86.875 36.0547 88.1252 38.9844 88.1252 42.4219C88.1252 46.4062 86.1717 50.1563 82.2657 53.6719C78.3593 57.2656 76.4062 60.3125 76.4062 62.8125V67.0312C78.2031 67.3437 79.6877 68.125 80.8595 69.375C82.1096 70.5468 82.8907 72.0313 83.203 73.8281H87.4218C90.0781 73.8281 93.1251 71.8359 96.5627 67.8516C100.078 63.8672 103.75 61.875 107.578 61.875C111.094 61.875 114.024 63.1641 116.367 65.7422C118.789 68.2422 120 71.3281 120 75C120 78.7498 118.789 81.8751 116.367 84.3748C113.945 86.875 111.016 88.1252 107.578 88.1252C104.297 88.1252 101.523 86.992 99.2577 84.7267C96.9924 82.461 94.8828 80.508 92.9298 78.8673C90.9763 77.2266 89.1408 76.4062 87.4218 76.4062H83.203C82.578 80.1561 80.3127 82.4218 76.4062 83.203V87.4218C76.4062 89.7654 78.3593 92.7737 82.2657 96.4452C86.1717 100.117 88.1252 103.828 88.1252 107.578C88.1252 111.094 86.8359 114.024 84.2578 116.367C81.7576 118.789 78.672 120 75 120Z" fill="var(--symbol)"/>
</svg>
